<?xml version="1.0" encoding="UTF-8" standalone="no"?>
<!DOCTYPE svg PUBLIC "-//W3C//DTD SVG 1.1//EN"
 "http://www.w3.org/Graphics/SVG/1.1/DTD/svg11.dtd">
<!-- Generated by graphviz version 2.43.0 (0)
 -->
<!-- Title: G Pages: 1 -->
<svg width="693pt" height="227pt"
 viewBox="0.00 0.00 692.53 226.95" xmlns="http://www.w3.org/2000/svg" xmlns:xlink="http://www.w3.org/1999/xlink">
<g id="graph0" class="graph" transform="scale(1 1) rotate(0) translate(4 222.95)">
<title>G</title>
<polygon fill="white" stroke="transparent" points="-4,4 -4,-222.95 688.53,-222.95 688.53,4 -4,4"/>
<!-- d -->
<g id="node1" class="node">
<title>d</title>
<polygon fill="#c1b2ff" stroke="#c1b2ff" points="107.19,-218.95 36.19,-218.95 36.19,-182.95 107.19,-182.95 107.19,-218.95"/>
<text text-anchor="middle" x="71.69" y="-197.25" font-family="Times,serif" font-size="14.00">Deposit</text>
</g>
<!-- d_rule -->
<g id="node2" class="node">
<title>d_rule</title>
<polygon fill="gray" stroke="gray" points="71.69,-146.95 -0.19,-128.95 71.69,-110.95 143.58,-128.95 71.69,-146.95"/>
<text text-anchor="middle" x="71.69" y="-125.25" font-family="Times,serif" font-size="14.00">Anybody</text>
</g>
<!-- d&#45;&gt;d_rule -->
<g id="edge1" class="edge">
<title>d&#45;&gt;d_rule</title>
<path fill="none" stroke="black" d="M71.69,-182.65C71.69,-174.94 71.69,-165.67 71.69,-157.07"/>
<polygon fill="black" stroke="black" points="75.19,-157.06 71.69,-147.06 68.19,-157.06 75.19,-157.06"/>
</g>
<!-- d_action -->
<g id="node3" class="node">
<title>d_action</title>
<ellipse fill="none" stroke="black" cx="71.69" cy="-37.48" rx="57.39" ry="18"/>
<text text-anchor="middle" x="71.69" y="-33.78" font-family="Times,serif" font-size="14.00">Unlimited</text>
</g>
<!-- d_rule&#45;&gt;d_action -->
<g id="edge2" class="edge">
<title>d_rule&#45;&gt;d_action</title>
<path fill="none" stroke="black" d="M71.69,-110.7C71.69,-97.95 71.69,-80.34 71.69,-65.7"/>
<polygon fill="black" stroke="black" points="75.19,-65.68 71.69,-55.68 68.19,-65.68 75.19,-65.68"/>
</g>
<!-- w -->
<g id="node4" class="node">
<title>w</title>
<polygon fill="#c1b2ff" stroke="#c1b2ff" points="347.69,-218.95 261.69,-218.95 261.69,-182.95 347.69,-182.95 347.69,-218.95"/>
<text text-anchor="middle" x="304.69" y="-197.25" font-family="Times,serif" font-size="14.00">Withdraw</text>
</g>
<!-- w_owner -->
<g id="node5" class="node">
<title>w_owner</title>
<polygon fill="gray" stroke="gray" points="220.69,-146.95 162.04,-128.95 220.69,-110.95 279.35,-128.95 220.69,-146.95"/>
<text text-anchor="middle" x="220.69" y="-125.25" font-family="Times,serif" font-size="14.00">Owner</text>
</g>
<!-- w&#45;&gt;w_owner -->
<g id="edge3" class="edge">
<title>w&#45;&gt;w_owner</title>
<path fill="none" stroke="black" d="M283.93,-182.65C271.66,-172.42 256.1,-159.45 243.48,-148.94"/>
<polygon fill="black" stroke="black" points="245.61,-146.16 235.68,-142.45 241.13,-151.54 245.61,-146.16"/>
</g>
<!-- w_nonowner -->
<g id="node7" class="node">
<title>w_nonowner</title>
<polygon fill="gray" stroke="gray" points="389.69,-146.95 299.54,-128.95 389.69,-110.95 479.85,-128.95 389.69,-146.95"/>
<text text-anchor="middle" x="389.69" y="-125.25" font-family="Times,serif" font-size="14.00">Non&#45;Owner</text>
</g>
<!-- w&#45;&gt;w_nonowner -->
<g id="edge5" class="edge">
<title>w&#45;&gt;w_nonowner</title>
<path fill="none" stroke="black" d="M325.71,-182.65C337.64,-172.82 352.65,-160.46 365.13,-150.18"/>
<polygon fill="black" stroke="black" points="367.41,-152.84 372.91,-143.78 362.96,-147.43 367.41,-152.84"/>
</g>
<!-- w_owner_action -->
<g id="node6" class="node">
<title>w_owner_action</title>
<ellipse fill="none" stroke="black" cx="219.69" cy="-37.48" rx="57.39" ry="18"/>
<text text-anchor="middle" x="219.69" y="-33.78" font-family="Times,serif" font-size="14.00">Unlimited</text>
</g>
<!-- w_owner&#45;&gt;w_owner_action -->
<g id="edge4" class="edge">
<title>w_owner&#45;&gt;w_owner_action</title>
<path fill="none" stroke="black" d="M220.5,-110.7C220.36,-97.95 220.16,-80.34 220,-65.7"/>
<polygon fill="black" stroke="black" points="223.5,-65.64 219.89,-55.68 216.5,-65.71 223.5,-65.64"/>
</g>
<!-- w_nonowner_action -->
<g id="node8" class="node">
<title>w_nonowner_action</title>
<ellipse fill="none" stroke="black" cx="405.69" cy="-37.48" rx="111.03" ry="37.45"/>
<text text-anchor="middle" x="405.69" y="-48.78" font-family="Times,serif" font-size="14.00">Limited amount </text>
<text text-anchor="middle" x="405.69" y="-33.78" font-family="Times,serif" font-size="14.00">by internal variable</text>
<text text-anchor="middle" x="405.69" y="-18.78" font-family="Times,serif" font-size="14.00"> per user</text>
</g>
<!-- w_nonowner&#45;&gt;w_nonowner_action -->
<g id="edge6" class="edge">
<title>w_nonowner&#45;&gt;w_nonowner_action</title>
<path fill="none" stroke="black" d="M392.7,-111.12C394.03,-103.69 395.67,-94.54 397.33,-85.27"/>
<polygon fill="black" stroke="black" points="400.8,-85.71 399.12,-75.25 393.91,-84.48 400.8,-85.71"/>
</g>
<!-- allow -->
<g id="node9" class="node">
<title>allow</title>
<polygon fill="#c1b2ff" stroke="#c1b2ff" points="665.19,-218.95 518.19,-218.95 518.19,-182.95 665.19,-182.95 665.19,-218.95"/>
<text text-anchor="middle" x="591.69" y="-197.25" font-family="Times,serif" font-size="14.00">Change Allowance</text>
</g>
<!-- allow_rule -->
<g id="node10" class="node">
<title>allow_rule</title>
<polygon fill="gray" stroke="gray" points="591.69,-146.95 499.02,-128.95 591.69,-110.95 684.36,-128.95 591.69,-146.95"/>
<text text-anchor="middle" x="591.69" y="-125.25" font-family="Times,serif" font-size="14.00">Only Owner</text>
</g>
<!-- allow&#45;&gt;allow_rule -->
<g id="edge7" class="edge">
<title>allow&#45;&gt;allow_rule</title>
<path fill="none" stroke="black" d="M591.69,-182.65C591.69,-174.94 591.69,-165.67 591.69,-157.07"/>
<polygon fill="black" stroke="black" points="595.19,-157.06 591.69,-147.06 588.19,-157.06 595.19,-157.06"/>
</g>
<!-- allow_rule&#45;&gt;w_nonowner_action -->
<g id="edge9" class="edge">
<title>allow_rule&#45;&gt;w_nonowner_action</title>
<path fill="none" stroke="black" d="M566.22,-115.7C543.4,-104.72 508.81,-88.08 477.58,-73.06"/>
<polygon fill="black" stroke="black" points="478.97,-69.84 468.44,-68.66 475.94,-76.15 478.97,-69.84"/>
</g>
<!-- allow_action -->
<g id="node11" class="node">
<title>allow_action</title>
<ellipse fill="none" stroke="black" cx="591.69" cy="-37.48" rx="57.39" ry="18"/>
<text text-anchor="middle" x="591.69" y="-33.78" font-family="Times,serif" font-size="14.00">Unlimited</text>
</g>
<!-- allow_rule&#45;&gt;allow_action -->
<g id="edge8" class="edge">
<title>allow_rule&#45;&gt;allow_action</title>
<path fill="none" stroke="black" d="M591.69,-110.7C591.69,-97.95 591.69,-80.34 591.69,-65.7"/>
<polygon fill="black" stroke="black" points="595.19,-65.68 591.69,-55.68 588.19,-65.68 595.19,-65.68"/>
</g>
</g>
</svg>
